<svg width="3208" height="3000" viewBox="0 0 3208 3000" fill="none" xmlns="http://www.w3.org/2000/svg">
<path d="M2620.5 1534L2599.5 1568L1715.5 1599.5L1736.5 1575L2620.5 1534Z" fill="#C4C4C4"/>
<path d="M2594.5 2999.5L1783.5 2825L1767 1757L2594.5 1749.5V2999.5Z" fill="#747474"/>
<path d="M2224.49 1781.04L2063.5 1783V1939.5L2224.49 1942V1781.04Z" fill="#C4C4C4"/>
<path d="M2734 1746.5L2594.5 1752V2996L3162 2790L3175.5 1695L2764 1697.5L2734 1746.5Z" fill="#A4A4A4"/>
<g filter="url(#filter0_d)">
<path d="M2733.5 1746.5L2598.5 1750.5V1568L2620.5 1534L3204 1558.5V1694L2764 1697.5L2733.5 1746.5Z" fill="#C4C4C4"/>
</g>
<g filter="url(#filter1_d)">
<path d="M1715.5 1600L1718 1757.5L2599 1750.5V1568L1715.5 1600Z" fill="#929292"/>
</g>
<path d="M2160.5 1910V1915H2165.5V1910H2160.5Z" fill="black"/>
<path d="M2095.5 1875V1865H2100.5V1870H2110.5V1855H2120.5V1860H2130.5V1865H2115.5V1875H2095.5Z" fill="black"/>
<rect x="2095.5" y="1815" width="30" height="30" fill="black"/>
<path d="M2102.5 1838V1822H2118.5V1838H2102.5Z" stroke="#C8C8C8" stroke-width="4"/>
<rect x="2165.5" y="1815" width="30" height="30" fill="black"/>
<path d="M2172.5 1838V1822H2188.5V1838H2172.5Z" stroke="#C8C8C8" stroke-width="4"/>
<rect x="2095.5" y="1885" width="30" height="30" fill="black"/>
<path d="M2102.5 1908V1892H2118.5V1908H2102.5Z" stroke="#C8C8C8" stroke-width="4"/>
<path d="M2190.5 1910V1915H2195.5V1910H2190.5Z" fill="black"/>
<path d="M2100.5 1860H2095.5V1850H2110.5V1855H2100.5V1860Z" fill="black"/>
<path d="M2130.5 1855H2120.5V1850H2130.5V1855Z" fill="black"/>
<path d="M2130.5 1900V1915H2145.5V1910H2140.5V1905H2135.5V1900H2130.5Z" fill="black"/>
<path d="M2150.5 1905V1910H2155.5V1905H2150.5Z" fill="black"/>
<path d="M2185.5 1890V1895H2190.5V1890H2185.5Z" fill="black"/>
<path d="M2190.5 1880V1885H2195.5V1880H2190.5Z" fill="black"/>
<path d="M2185.5 1870V1875H2190.5V1870H2185.5Z" fill="black"/>
<path d="M2160.5 1870V1875H2165.5V1870H2160.5Z" fill="black"/>
<path d="M2130.5 1885V1890H2135.5V1885H2130.5Z" fill="black"/>
<path d="M2110.5 1880V1875H2125.5V1870H2135.5V1865H2140.5V1860H2135.5V1855V1845H2130.5V1835H2145.5V1845H2140.5V1855H2145.5V1850H2150.5V1840H2162.5V1845H2155.5V1850V1855V1861H2150.5V1855H2145.5V1865H2160.5V1870H2145.5H2140.5V1875H2135.5V1880H2110.5Z" fill="black"/>
<path d="M2140.5 1885V1880H2145.5V1885H2140.5Z" fill="black"/>
<path d="M2160.5 1885H2150.5V1875H2155.5V1880H2160.5V1885Z" fill="black"/>
<path d="M2130.5 1825V1815H2160.5V1820H2155.5V1825H2160.5V1835H2155.5V1830H2150.5V1825H2145.5H2140.5V1830H2135.5V1825H2130.5Z" fill="black"/>
<path d="M2180.5 1860V1865H2185.5V1860H2180.5Z" fill="black"/>
<path d="M2180.5 1915H2175.5V1905H2170.5V1900H2175.5V1895H2145.5V1900H2135.5V1890H2145.5H2170.5V1885H2165.5V1875H2175.5V1870H2170.5V1865V1860H2160.5V1849H2175.5V1855H2180.5V1860H2175.5V1865H2180.5V1875H2185.5V1885H2180.5V1895H2185.5V1900H2195.5V1905H2180.5V1915Z" fill="black"/>
<path d="M2195.5 1849H2185.5V1855H2190.5V1865H2195.5V1849Z" fill="black"/>
<path d="M2155.5 1905V1895H2165.5V1905H2155.5Z" fill="black"/>
<path d="M1197.39 1192.28C1158.4 1207.08 1067.61 1208.74 1027.29 1208.7C1015.05 1208.7 1007.46 1208.7 1007.46 1208.7L981.611 1156.09L1007.46 1112.22C1007.46 1112.22 1031.18 1105.72 1062.68 1100.02C1109.16 1091.63 1172.77 1085.08 1203.08 1103.91C1253.93 1135.32 1248.24 1172.98 1197.39 1192.28Z" fill="#FEC2BE"/>
<path opacity="0.1" d="M1027.28 1208.7C1015.04 1208.7 1007.45 1208.7 1007.45 1208.7L981.598 1156.09L1007.45 1112.22C1007.45 1112.22 1031.17 1105.72 1062.66 1100.03C1037.1 1118.71 975.621 1159.46 1027.28 1208.7Z" fill="black"/>
<path d="M599.153 562.503L610.584 549.363C610.584 549.363 669.355 642.334 675.474 677.435C681.593 712.536 689.704 752.902 689.704 752.902C689.704 752.902 704.361 798.439 713.848 818.646C723.335 838.853 732.253 858.111 733.106 866.886C733.96 875.662 729.596 894.967 748.048 907.205C766.5 919.443 770.864 952.837 770.864 952.837C770.864 952.837 837.271 1017.73 872.61 1019.48C907.948 1021.24 1008.56 1038.79 1005.05 1056.34C1001.54 1073.89 1047.17 1084.42 1065.57 1088.78C1083.98 1093.15 946.986 1145.7 1026.96 1213.34C1026.96 1213.34 976.111 1223.87 970.845 1236.16C965.58 1248.45 912.075 1229.14 912.075 1229.14C912.075 1229.14 900.643 1201.96 861.178 1200.2C821.713 1198.45 801.554 1180.9 801.554 1178.24C801.554 1175.59 762.088 1153.72 740.126 1147.55C718.165 1141.39 689.277 1138.78 688.376 1132.66C687.475 1126.54 556.842 562.503 556.842 562.503H599.153Z" fill="#737373"/>
<path opacity="0.05" d="M597.25 554.339L608.682 541.2C608.682 541.2 667.453 634.171 673.572 669.272C679.691 704.373 687.802 744.739 687.802 744.739C687.802 744.739 702.459 790.276 711.946 810.483C721.433 830.69 730.35 849.948 731.204 858.723C732.058 867.499 727.694 886.804 746.146 899.042C764.598 911.28 768.962 944.674 768.962 944.674C768.962 944.674 835.369 1009.56 870.707 1011.32C906.045 1013.07 1006.65 1030.62 1003.14 1048.17C999.633 1065.73 1045.26 1076.26 1063.67 1080.62C1082.07 1084.98 945.084 1137.54 1025.06 1205.18C1025.06 1205.18 974.208 1215.71 968.943 1228C963.678 1240.28 910.172 1220.98 910.172 1220.98C910.172 1220.98 898.741 1193.8 859.276 1192.04C819.811 1190.29 799.651 1172.74 799.651 1170.08C799.651 1167.42 760.186 1145.56 738.224 1139.39C716.262 1133.22 687.375 1130.61 686.474 1124.5C685.573 1118.38 554.939 554.339 554.939 554.339H597.25Z" fill="#F1F1F1"/>
<path d="M462.443 2996.58C346.656 3018.3 325.596 2929.5 325.596 2929.5C325.596 2929.5 311.366 2850.57 305.863 2844.65C305.215 2843.51 304.801 2842.26 304.646 2840.97C304.491 2839.67 304.598 2838.36 304.962 2837.1V2837.1C307.991 2823.72 313.669 2811.07 321.659 2799.92C328.916 2791.33 322.987 2755.8 322.987 2755.8L457.178 2721.6C457.178 2721.6 469.036 2748.59 470.317 2761.07C471.597 2773.54 491.377 2830.18 489.29 2838.05C487.203 2845.93 497.829 2870.31 499.157 2882.78C500.485 2895.26 516.897 2913.71 518.13 2920.3C520.211 2926.21 522.635 2931.99 525.388 2937.62C528.969 2946.28 531.825 2955.23 533.926 2964.37C540.804 2991.98 462.443 2996.58 462.443 2996.58Z" fill="#343434"/>
<path opacity="0.1" d="M462.435 2996.58C346.649 3018.3 325.588 2929.51 325.588 2929.51C325.588 2929.51 311.358 2850.57 305.855 2844.65C305.207 2843.51 304.793 2842.26 304.638 2840.97C304.483 2839.67 304.591 2838.36 304.954 2837.1L332.845 2916.98C332.845 2916.98 355.851 2965.03 441.374 2957.78C490.042 2953.7 513.996 2944.64 525.617 2937.62C529.198 2946.28 532.054 2955.23 534.155 2964.37C540.796 2991.98 462.435 2996.58 462.435 2996.58Z" fill="black"/>
<path opacity="0.1" d="M372.311 2871.59C372.311 2871.59 401.246 2872.25 403.238 2848.58L372.311 2871.59Z" fill="black"/>
<path d="M875.676 2094C861.446 2115.73 844.749 2210.45 844.749 2210.45C844.749 2210.45 833.555 2232.18 834.219 2250.58C834.883 2268.99 823.689 2302.76 823.689 2302.76L786.833 2438.94C786.833 2438.94 790.817 2475.09 776.966 2500.61C763.116 2526.13 764.491 2518.39 771.085 2563.12C777.678 2607.85 763.163 2649.31 739.493 2662.45C715.824 2675.59 750.024 2706.52 750.024 2706.52C750.024 2706.52 598.709 2747.31 567.118 2722.31C535.527 2697.32 583.578 2573.66 583.578 2573.66C583.578 2573.66 575.704 2469.68 580.922 2454.55C586.139 2439.42 608.576 2310.35 608.576 2310.35C608.576 2310.35 622.379 2251.82 617.114 2241.95C611.849 2232.08 620.434 2203.77 620.434 2203.77C620.434 2203.77 642.776 2172.22 640.831 2162.36C638.886 2152.49 647.424 2134.84 647.424 2134.84C647.424 2134.84 580.352 2032.2 586.234 2013.13C592.116 1994.06 583.625 1963.13 583.625 1963.13C583.625 1963.13 575.135 1948.57 564.936 1931.21C552.461 1909.86 537.377 1884.3 532.302 1876.33C525.851 1866.13 510.293 1822.97 501.612 1798.11L495.446 1780.27C495.446 1780.27 484.963 1973.66 475.713 1993.4C466.463 2013.13 452.708 2168.9 452.708 2168.9C447.616 2182.79 445.374 2197.57 446.114 2212.35C447.442 2236.68 425.054 2342.6 425.054 2342.6C425.054 2342.6 415.187 2417.6 421.781 2437.47C428.374 2457.35 423.109 2602.59 423.109 2602.59C423.109 2602.59 459.301 2631.05 468.503 2652.59C477.705 2674.12 467.175 2733.51 467.175 2733.51C467.175 2733.51 361.919 2786.11 315.386 2772.31C268.854 2758.51 287.78 2678.91 287.78 2678.91C287.78 2678.91 256.189 2626.26 256.189 2605.86C256.189 2585.47 244.994 2523 244.994 2523C204.865 2449.28 220.661 2270.36 214.115 2255.9C207.569 2241.43 227.681 2187.45 244.235 2163.3C260.79 2139.16 254.102 2073.18 244.235 2054.21C234.369 2035.23 254.007 1968.82 254.007 1968.82C254.007 1968.82 235.033 1841.18 235.555 1821.45C236.077 1801.71 219.095 1743.18 219.095 1743.18C219.095 1743.18 202.019 1712.92 205.956 1703.72C209.893 1694.51 192.817 1670.8 197.418 1660.27C202.019 1649.74 193.481 1617.58 184.895 1598.6C180.531 1588.78 175.077 1561.89 170.665 1537.98C166.633 1515.26 163.645 1495.29 163.645 1495.29L272.221 1407.82L543.259 1336.67L645.242 1303.75L744.569 1460.29C744.569 1460.29 754.815 1476.65 763.922 1495.53C771.701 1511.8 778.674 1529.97 777.44 1541.21C775.785 1555.46 779.03 1569.84 786.643 1582C786.643 1582 846.077 1769.6 844.749 1823.63C843.421 1877.66 865.62 1996 865.62 1996C865.62 1996 890.144 2072.28 875.676 2094Z" fill="#737373"/>
<path d="M592.365 795.734V1206.28L700.894 1425.23L704.357 1432.16L991.664 1413.18L1102.09 1405.88L1358.42 1388.94V897.86L1102.09 905.117L987.443 908.343L697.479 916.549L592.365 795.734Z" fill="#C98E4C"/>
<path opacity="0.1" d="M592.362 819.975V1206.28L618.877 1259.73V1259.78L646.104 1314.57V1314.62L700.891 1425.23L694.771 1014.69L693.538 931.871L641.408 874.192L618.687 849.052L592.362 819.975Z" fill="black"/>
<path d="M577.648 686.732V830.125L592.353 853.605L618.679 895.536L642.016 932.677L693.529 1014.74L694.763 1014.69L1380.99 979.399V837.951L1379.28 836.101L1297.36 747.4L1267.67 715.335L1214.07 657.275L577.648 686.732Z" fill="#EEAE66"/>
<path opacity="0.1" d="M693.529 873.337V1014.74L1380.99 979.4V837.951L1379.28 836.102L693.529 873.337Z" fill="black"/>
<path opacity="0.15" d="M577.65 686.732V830.125L693.531 1014.74V873.338L577.65 686.732Z" fill="black"/>
<path d="M474.898 569.048C470.724 567.341 184.555 449.183 223.973 425.655C247.358 411.71 276.15 352.654 295.883 306.406C309.639 274.056 318.983 248.063 318.983 248.063C318.983 248.063 548.658 207.269 466.455 348.053C453.49 369.645 443.727 393.005 437.473 417.402C414.041 513.266 473.001 567.293 474.898 569.048Z" fill="#FEC2BE"/>
<path opacity="0.1" d="M466.455 348.053C453.49 369.645 443.727 393.005 437.473 417.402C408.332 415.354 380.303 405.393 356.406 388.592C332.508 371.791 313.649 348.787 301.859 322.06C299.58 316.956 297.585 311.73 295.883 306.406C309.639 274.056 318.983 248.063 318.983 248.063C318.983 248.063 548.658 207.269 466.455 348.053Z" fill="black"/>
<path d="M609.24 251.999C609.239 288.82 596.579 324.521 573.382 353.117C550.185 381.713 517.863 401.464 481.833 409.059C445.804 416.654 408.259 411.631 375.493 394.833C342.727 378.034 316.733 350.481 301.868 316.794C292.815 296.395 288.16 274.317 288.207 251.999C288.207 230.92 292.359 210.047 300.425 190.572C308.492 171.097 320.316 153.402 335.221 138.497C350.127 123.591 367.822 111.768 387.296 103.701C406.771 95.6343 427.644 91.4824 448.724 91.4824C469.803 91.4824 490.676 95.6343 510.151 103.701C529.625 111.768 547.321 123.591 562.226 138.497C577.131 153.402 588.955 171.097 597.022 190.572C605.088 210.047 609.24 230.92 609.24 251.999Z" fill="#FEC2BE"/>
<path opacity="0.1" d="M764.129 1495.72C747.29 1510.99 740.839 1540.07 740.839 1540.07C740.839 1540.07 661.672 1594.1 667.127 1559.8C672.582 1525.51 626.333 1387.47 626.333 1387.47L631.598 1575.6C631.598 1575.6 379.013 1563.79 360.561 1545.33C342.109 1526.88 234.244 1491.4 234.244 1491.4C234.244 1491.4 201.04 1517.92 170.872 1538.03C166.841 1515.31 163.852 1495.34 163.852 1495.34L272.428 1407.87L543.466 1336.72L645.449 1303.8L744.776 1460.33C744.776 1460.33 755.022 1476.84 764.129 1495.72Z" fill="black"/>
<path d="M772.364 1480.87C751.351 1494.06 743.429 1529.59 743.429 1529.59C743.429 1529.59 664.499 1583.52 669.764 1549.32C675.03 1515.12 628.971 1376.94 628.971 1376.94L634.236 1565.07C634.236 1565.07 381.603 1553.26 363.199 1534.8C344.794 1516.35 236.882 1480.87 236.882 1480.87C236.882 1480.87 143.484 1555.86 126.361 1549.32C109.237 1542.77 156.624 1415.08 156.624 1415.08L205.291 667.758C205.291 667.758 192.152 445.388 211.884 437.514C214.929 436.282 217.737 434.533 220.185 432.344C233.182 420.627 237.072 396.91 238.21 376.988C239.491 353.271 271.082 365.13 271.082 365.13L252.678 388.847L415.708 487.936L417.131 488.837C423.483 485.489 430.024 482.511 436.721 479.92C450.951 474.37 470.352 469.152 482.922 474.37C489.947 477.924 495.905 483.276 500.188 489.881C509.492 503.869 516.953 518.999 522.387 534.896L581.584 634.887C581.584 634.887 611.847 767.702 611.847 773.014C611.847 778.327 621.049 899.331 631.58 912.47C642.11 925.609 652.641 991.448 648.704 1011.18C644.767 1030.91 655.297 1104.58 655.297 1104.58C698.699 1140.11 721.088 1261.11 721.088 1261.11C721.088 1261.11 789.488 1396.63 794.753 1412.42C800.018 1428.22 793.425 1467.73 772.364 1480.87Z" fill="white"/>
<path opacity="0.1" d="M415.713 493.2C399.728 516.917 353.527 550.121 353.527 550.121L220.19 437.513C233.187 425.796 237.076 402.079 238.215 382.157C239.495 358.44 271.086 370.299 271.086 370.299L267.292 375.042C265.458 377.399 264.144 380.117 263.433 383.018C262.723 385.919 262.634 388.937 263.172 391.875C263.709 394.812 264.861 397.603 266.552 400.065C268.243 402.526 270.435 404.603 272.984 406.159L415.713 493.2Z" fill="black"/>
<path d="M415.713 487.935C399.728 511.652 353.527 544.856 353.527 544.856L220.19 432.248C233.187 420.532 237.076 396.815 238.215 376.892C239.495 353.175 271.086 365.034 271.086 365.034L267.292 369.777C265.458 372.135 264.144 374.853 263.433 377.754C262.723 380.654 262.634 383.672 263.172 386.61C263.709 389.548 264.861 392.339 266.552 394.8C268.243 397.262 270.435 399.338 272.984 400.894L415.713 487.935Z" fill="white"/>
<path opacity="0.1" d="M477.371 505.676C460.153 526.31 435.724 549.647 436.862 537.931C438.001 526.215 422.3 500.411 412.292 488.837C427.919 483.868 444.766 484.319 460.105 490.118C467.122 493.705 473.075 499.069 477.371 505.676V505.676Z" fill="black"/>
<path d="M480.039 497.803C462.773 518.389 438.392 541.774 439.53 530.058C440.669 518.342 426.581 499.416 416.572 487.842C430.803 482.292 450.156 477.074 462.773 482.245C469.81 485.802 475.771 491.173 480.039 497.803V497.803Z" fill="white"/>
<path d="M436.864 607.233C431.048 607.233 426.334 602.518 426.334 596.702C426.334 590.886 431.048 586.172 436.864 586.172C442.68 586.172 447.395 590.886 447.395 596.702C447.395 602.518 442.68 607.233 436.864 607.233Z" fill="#343434"/>
<path d="M516.706 891.409C510.89 891.409 506.176 886.695 506.176 880.879C506.176 875.063 510.89 870.349 516.706 870.349C522.522 870.349 527.236 875.063 527.236 880.879C527.236 886.695 522.522 891.409 516.706 891.409Z" fill="#343434"/>
<path d="M607.073 1179.14C601.257 1179.14 596.543 1174.43 596.543 1168.61C596.543 1162.8 601.257 1158.08 607.073 1158.08C612.889 1158.08 617.604 1162.8 617.604 1168.61C617.604 1174.43 612.889 1179.14 607.073 1179.14Z" fill="#343434"/>
<path d="M483.37 741.423C477.554 741.423 472.84 736.708 472.84 730.893C472.84 725.077 477.554 720.362 483.37 720.362C489.186 720.362 493.9 725.077 493.9 730.893C493.9 736.708 489.186 741.423 483.37 741.423Z" fill="#343434"/>
<path d="M554.413 1033.52C548.597 1033.52 543.883 1028.81 543.883 1022.99C543.883 1017.18 548.597 1012.46 554.413 1012.46C560.229 1012.46 564.943 1017.18 564.943 1022.99C564.943 1028.81 560.229 1033.52 554.413 1033.52Z" fill="#343434"/>
<path d="M623.708 1320.35C617.892 1320.35 613.178 1315.64 613.178 1309.82C613.178 1304.01 617.892 1299.29 623.708 1299.29C629.524 1299.29 634.238 1304.01 634.238 1309.82C634.238 1315.64 629.524 1320.35 623.708 1320.35Z" fill="#343434"/>
<path opacity="0.1" d="M220.243 438.842C220.243 438.842 221.998 423.047 199.182 450.226C176.366 477.406 133.391 501.123 133.391 501.123C133.391 501.123 36.0093 569.523 30.7916 601.114C25.5739 632.705 -6.01715 769.504 10.6322 815.136C27.2815 860.767 154.499 1079.15 154.499 1079.15C154.499 1079.15 121.296 1118.62 129.027 1165.1C136.759 1211.59 146.578 1275.63 142.214 1289.67C137.85 1303.71 147.479 1338.76 132.727 1351.05C117.975 1363.33 102.037 1384.25 148.523 1412.47C148.523 1412.47 157.298 1436.19 149.424 1441.41C141.55 1446.62 266.064 1501.08 315.206 1472.1C364.347 1443.11 452.764 1211.59 454.662 1159.84C456.559 1108.09 427.482 936.899 411.686 896.675C395.891 856.451 348.504 699.35 328.345 664.249C308.185 629.147 220.243 438.842 220.243 438.842Z" fill="black"/>
<path d="M214.968 438.842C214.968 438.842 216.723 423.047 193.907 450.226C171.091 477.406 128.116 501.123 128.116 501.123C128.116 501.123 30.7814 569.523 25.4688 601.114C20.1562 632.705 -11.3399 769.504 5.30939 815.136C21.9587 860.767 149.366 1079.15 149.366 1079.15C149.366 1079.15 116.163 1118.62 123.894 1165.1C131.626 1211.59 141.445 1275.63 137.081 1289.67C132.717 1303.71 142.346 1338.76 127.594 1351.05C112.842 1363.33 96.9043 1384.25 143.39 1412.47C143.39 1412.47 152.165 1436.19 144.291 1441.41C136.417 1446.62 260.931 1501.08 310.073 1472.1C359.214 1443.11 447.631 1211.59 449.529 1159.84C451.426 1108.09 422.349 936.899 406.553 896.675C390.758 856.451 343.371 699.35 323.212 664.249C303.053 629.147 214.968 438.842 214.968 438.842Z" fill="#737373"/>
<path opacity="0.1" d="M179.888 587.927C179.888 587.927 255.308 671.268 252.699 726.529C252.699 726.529 253.743 637.068 179.888 587.927Z" fill="black"/>
<path opacity="0.1" d="M284.277 724.773C284.277 727.43 335.126 916.881 332.518 940.551C329.909 964.22 347.412 1034.37 347.412 1034.37L371.129 1028.21C371.129 1028.21 352.725 930.874 349.214 894.919C345.704 858.964 284.277 724.773 284.277 724.773Z" fill="black"/>
<path opacity="0.1" d="M304.426 1265.09C302.671 1267.75 184.228 1401.94 217.574 1411.57C250.92 1421.2 304.426 1265.09 304.426 1265.09Z" fill="black"/>
<path opacity="0.1" d="M207.053 1230.89C204.444 1232.65 159.619 1327.38 154.449 1302.05C149.278 1276.72 193.012 1371.35 200.033 1301.14L207.053 1230.89Z" fill="black"/>
<path opacity="0.1" d="M434.459 468.63C434.459 468.63 483.363 438.842 544.79 515.116C544.79 515.116 589.521 540.588 602.66 546.707C615.799 552.826 630.741 715.999 630.741 715.999C630.741 715.999 659.675 786.153 651.801 826.52C643.927 866.886 674.57 1005.49 674.57 1005.49C674.57 1005.49 725.467 1254.56 723.711 1261.63C721.956 1268.7 671.961 1183.56 672.862 1141.48C673.763 1099.41 630.741 967.778 624.574 959.904C618.408 952.03 576.287 726.529 576.287 726.529C576.287 726.529 542.087 630.902 520.172 599.358C498.258 567.815 471.03 508.143 459.646 497.613C451.46 490.51 442.309 484.601 432.467 480.062L434.459 468.63Z" fill="black"/>
<path d="M433.991 468.63C433.991 468.63 488.825 438.842 550.252 515.116C550.252 515.116 594.982 540.588 608.121 546.707C621.26 552.826 636.202 715.999 636.202 715.999C636.202 715.999 665.137 786.153 657.263 826.52C649.389 866.886 680.031 1005.49 680.031 1005.49C680.031 1005.49 730.927 1254.56 729.172 1261.63C727.417 1268.7 677.422 1183.56 678.276 1141.48C679.13 1099.41 636.202 967.778 630.036 959.904C623.869 952.03 581.795 726.576 581.795 726.576C581.795 726.576 547.595 630.949 525.681 599.406C503.766 567.862 476.539 508.19 465.155 497.66C453.771 487.13 432.71 480.109 432.71 480.109L433.991 468.63Z" fill="#737373"/>
<path d="M674.562 1016.87C674.562 1016.87 778.917 948.473 829.387 982.199C879.856 1015.92 962.202 1063.79 881.137 1098.46C800.073 1133.13 687.749 1126.49 687.749 1126.49L674.562 1016.87Z" fill="#FEC2BE"/>
<path opacity="0.1" d="M601.993 1676.92C586.434 1710.12 573.532 1877.99 564.899 1931.16C552.424 1909.82 537.34 1884.25 532.265 1876.28C525.814 1866.08 510.255 1822.92 501.575 1798.06C511.489 1773.97 538.858 1704.9 538.858 1679.48C538.858 1648.55 588.854 1609.75 588.854 1609.75C588.854 1609.75 620.444 1637.45 601.993 1676.92Z" fill="black"/>
<path opacity="0.1" d="M266.488 2192.05C266.488 2192.05 382.274 2142.67 416.474 2177.82C450.674 2212.97 266.488 2192.05 266.488 2192.05Z" fill="black"/>
<path opacity="0.1" d="M331.627 2211.78C331.627 2211.78 214.513 2277.57 254.642 2288.72C294.771 2299.87 331.627 2211.78 331.627 2211.78Z" fill="black"/>
<path opacity="0.1" d="M681.582 2154.53C681.582 2154.53 631.587 2157.8 650.702 2167.67C669.818 2177.53 681.582 2154.53 681.582 2154.53Z" fill="black"/>
<path opacity="0.1" d="M744.119 2169.66C743.455 2172.93 598.734 2219.66 627.005 2240.81C655.275 2261.97 744.119 2169.66 744.119 2169.66Z" fill="black"/>
<path opacity="0.1" d="M283.602 2572.28C305.279 2569.01 426.33 2513.08 378.991 2553.31C331.652 2593.53 283.602 2572.28 283.602 2572.28Z" fill="black"/>
<path opacity="0.1" d="M343.472 2616.35C343.472 2616.35 354.002 2657.14 394.131 2651.87C434.26 2646.61 343.472 2616.35 343.472 2616.35Z" fill="black"/>
<path opacity="0.1" d="M309.892 2699.31C317.149 2697.32 403.336 2657.85 405.281 2676.25C407.226 2694.66 323.078 2726.91 316.485 2717.05C312.708 2711.85 310.428 2705.71 309.892 2699.31V2699.31Z" fill="black"/>
<path opacity="0.1" d="M588.844 2651.87C599.374 2651.21 697.942 2619.67 717.77 2647.94L588.844 2651.87Z" fill="black"/>
<path opacity="0.1" d="M678.306 2670.28C678.306 2670.28 695.43 2655.15 712.506 2663.07C729.582 2670.99 678.306 2670.28 678.306 2670.28Z" fill="black"/>
<path opacity="0.1" d="M459.924 2833.45C461.011 2839.04 463.703 2844.2 467.67 2848.28C471.638 2852.37 476.709 2855.21 482.266 2856.46L459.924 2833.45Z" fill="black"/>
<path d="M961.862 2895.31C955.269 2922.25 863.152 2924.9 819.086 2917.65C775.02 2910.39 683.567 2884.3 683.567 2884.3C683.567 2884.3 587.513 2875.1 559.243 2863.24C530.972 2851.38 553.313 2821.12 553.313 2821.12C553.313 2821.12 553.313 2820.12 553.313 2818.32C552.649 2807.32 550.657 2767.42 557.44 2756.66C565.362 2744.18 560.761 2703.39 560.761 2703.39C560.761 2703.39 696.896 2729.71 699.552 2717.19C702.209 2704.67 723.269 2686.93 733.088 2682.99C742.907 2679.05 750.212 2715.86 750.212 2715.86C750.212 2715.86 811.876 2768.51 816.003 2787.58C820.13 2806.65 863.437 2816.52 863.437 2816.52C863.437 2816.52 929.228 2834.97 946.352 2844.17C951.318 2846.51 955.598 2850.08 958.78 2854.55C961.963 2859.02 963.939 2864.23 964.519 2869.69C965.163 2878.32 964.264 2886.99 961.862 2895.31V2895.31Z" fill="#343434"/>
<path opacity="0.1" d="M961.86 2895.31C955.267 2922.25 863.15 2924.9 819.084 2917.65C775.018 2910.39 683.565 2884.3 683.565 2884.3C683.565 2884.3 587.511 2875.1 559.241 2863.24C530.97 2851.38 553.311 2821.12 553.311 2821.12C553.311 2821.12 553.311 2820.12 553.311 2818.32L690.87 2848.77C690.87 2848.77 758.606 2877.71 802.008 2877.71C839.955 2877.71 924.862 2893.27 964.279 2869.69C965.001 2878.31 964.182 2886.98 961.86 2895.31V2895.31Z" fill="black"/>
<path opacity="0.1" d="M775.506 2791.33C775.506 2791.33 768.913 2834.78 742.587 2849.25L775.506 2791.33Z" fill="black"/>
<path opacity="0.1" d="M602.996 207.554C600.516 208.882 597.91 209.963 595.217 210.779C582.837 214.099 570.789 205.798 559.831 199.158C548.874 192.517 533.743 187.584 524.256 196.169C511.876 207.411 520.84 231.46 508.081 242.275C500.017 249.153 487.21 247.019 478.245 252.473C469.28 257.928 466.576 270.451 464.299 281.171C462.022 291.891 457.516 304.034 447.033 307.165C436.55 310.295 426.874 303.418 416.581 303.797C414.446 303.797 411.837 304.129 410.509 302.564C409.563 301.176 409.206 299.471 409.513 297.82C410.796 285.072 409.654 272.196 406.145 259.873C401.923 247.778 391.915 236.773 379.44 234.828C360.94 231.982 345.429 248.204 334.567 263.288C323.148 279.312 312.755 296.042 303.45 313.379C302.87 314.505 302.348 315.661 301.885 316.841C292.832 296.442 288.177 274.365 288.224 252.047C288.212 213.354 302.176 175.959 327.547 146.746C352.917 117.532 387.986 98.4652 426.298 93.0555C464.611 87.6458 503.588 96.257 536.055 117.304C568.523 138.351 592.295 170.418 602.996 207.601V207.554Z" fill="black"/>
<path d="M334.358 260.633C345.22 245.406 360.731 229.231 379.23 232.172C391.895 234.117 401.714 245.074 405.936 257.17C409.445 269.493 410.572 282.372 409.256 295.117C408.996 296.78 409.387 298.478 410.347 299.86C411.77 301.426 414.236 301.189 416.371 301.094C426.664 300.714 436.91 307.402 446.824 304.461C456.737 301.521 461.812 289.188 464.089 278.468C466.366 267.748 468.833 255.605 478.035 250.007C487.237 244.41 499.807 246.687 507.871 239.809C520.631 228.947 511.666 204.898 524.046 193.703C533.533 185.07 548.664 190.003 559.621 196.644C570.579 203.285 582.627 211.586 595.007 208.313C599.181 207.174 602.929 204.755 607.008 203.19C626.503 195.79 651.786 208.36 667.818 194.984C673.646 189.171 677.835 181.922 679.961 173.971C684.356 163.239 687.338 151.982 688.832 140.482C690.254 128.841 687.052 117.106 679.914 107.8C669.478 95.4675 651.833 92.4317 638.504 83.3244C627.167 75.5926 619.53 63.7341 612.036 52.1128C604.541 40.4915 597.284 28.3958 586.374 20.1897C575.464 11.9837 560.001 7.95177 547.763 14.1656C543.892 16.8288 539.615 18.8472 535.098 20.1423C530.086 20.2427 525.149 18.9097 520.868 16.3001C475.236 -5.18746 422.11 -1.39273 372.068 5.01086C352.05 7.57229 331.749 10.6081 313.486 19.2411C295.224 27.8741 279.097 42.958 273.974 62.5482C269.895 78.0117 273.026 94.8033 268.092 109.982C264.772 120.323 257.942 128.956 253.862 139.344C243.19 167.045 255.949 197.498 261.357 226.717C267.286 258.64 264.298 293.125 277.864 323.435C280.52 329.364 283.508 339.752 290.196 335.815C294.94 332.922 299.968 316.083 302.814 310.865C312.24 293.462 322.777 276.683 334.358 260.633V260.633Z" fill="#343434"/>
<path opacity="0.1" d="M45.6766 774.769L21.9596 842.315C21.9596 842.315 78.1215 1051.02 104.447 1094.95C130.773 1138.87 169.337 1194.94 169.337 1194.94C169.337 1194.94 234.227 1227.38 309.694 1212.49C385.161 1197.6 605.303 1158.08 605.303 1158.08C605.303 1158.08 623.707 1161.59 633.336 1147.55C642.965 1133.51 693.008 1126.49 693.008 1126.49C693.008 1126.49 750.878 1042.3 679.821 1007.2C679.821 1007.2 671.094 1026.5 633.336 1013.36C595.579 1000.22 584.242 1023.89 584.242 1023.89C584.242 1023.89 522.815 1036.18 488.615 1031.77C454.415 1027.36 369.319 1025.65 360.543 1018.63C358.329 1016.66 355.428 1015.65 352.47 1015.81C349.512 1015.97 346.737 1017.29 344.748 1019.48C344.748 1019.48 323.735 1011.61 316.714 1003.73C309.694 995.859 300.018 1012.46 300.018 1012.46C300.018 1012.46 287.732 1005.49 291.242 996.713C294.752 987.937 279.858 954.591 279.858 954.591C279.858 954.591 272.838 932.677 277.249 915.126C281.661 897.576 255.287 834.488 255.287 834.488C254.944 823.844 256.126 813.206 258.797 802.897C263.209 787.102 225.594 755.463 225.594 755.463C225.594 755.463 188.738 576.542 110.661 635.313C32.5849 694.084 45.6766 774.769 45.6766 774.769Z" fill="black"/>
<path d="M40.2652 774.769L16.5482 842.315C16.5482 842.315 72.7101 1051.02 99.036 1094.95C125.362 1138.87 163.926 1194.94 163.926 1194.94C163.926 1194.94 228.863 1227.38 304.283 1212.49C379.703 1197.6 599.986 1158.08 599.986 1158.08C599.986 1158.08 618.39 1161.59 628.019 1147.55C637.649 1133.51 687.692 1126.49 687.692 1126.49C687.692 1126.49 745.561 1042.3 674.505 1007.2C674.505 1007.2 665.777 1026.5 628.019 1013.36C590.262 1000.22 578.925 1023.89 578.925 1023.89C578.925 1023.89 517.261 1036.18 483.299 1031.77C449.336 1027.36 364.002 1025.65 355.227 1018.63C353.021 1016.66 350.127 1015.65 347.177 1015.81C344.227 1015.97 341.46 1017.29 339.479 1019.48C339.479 1019.48 318.418 1011.61 311.398 1003.73C304.378 995.859 294.701 1012.46 294.701 1012.46C294.701 1012.46 282.463 1005.49 285.973 996.713C289.483 987.937 274.542 954.591 274.542 954.591C274.542 954.591 267.522 932.677 271.933 915.126C276.344 897.576 249.971 834.488 249.971 834.488C249.628 823.844 250.81 813.206 253.481 802.897C257.892 787.102 220.277 755.463 220.277 755.463C220.277 755.463 183.421 576.542 105.345 635.313C27.2682 694.084 40.2652 774.769 40.2652 774.769Z" fill="#737373"/>
<path opacity="0.1" d="M610.56 1057.24C609.659 1063.36 590.353 1087.93 597.373 1092.29C604.394 1096.66 615.825 1094.05 605.295 1108.09C594.765 1122.13 595.808 1143.19 602.639 1140.53C609.469 1137.88 621.043 1106.33 621.043 1094.05C621.043 1081.76 610.56 1057.24 610.56 1057.24Z" fill="black"/>
<path opacity="0.1" d="M350.021 1043.2C350.021 1043.2 344.756 1104.58 301.781 1122.13C258.806 1139.68 350.021 1043.2 350.021 1043.2Z" fill="black"/>
<path opacity="0.1" d="M260.551 1022.14C257.942 1022.99 199.171 1054.58 225.497 1072.99C251.823 1091.39 260.551 1022.14 260.551 1022.14Z" fill="black"/>
<path opacity="0.1" d="M257.045 978.261C257.045 978.261 171.095 995.811 200.124 1010.71C229.154 1025.6 257.045 978.261 257.045 978.261Z" fill="black"/>
<g opacity="0.1">
<path opacity="0.1" d="M406.146 242.227C401.924 230.132 391.916 219.174 379.441 217.23C360.942 214.384 345.43 230.559 334.568 245.69C323.139 261.69 312.746 278.405 303.451 295.733C300.605 300.998 295.767 317.837 290.834 320.731C284.146 324.668 281.347 314.232 278.501 308.303C264.935 278.135 267.923 243.555 261.994 211.632C258.532 192.991 252.128 173.685 250.705 155.233C248.713 178.144 257.678 202.288 261.994 225.673C267.923 257.596 264.935 292.08 278.501 322.343C281.157 328.273 284.146 338.661 290.834 334.771C295.578 331.877 300.605 315.038 303.451 309.773C312.686 292.467 323.016 275.768 334.378 259.778C345.241 244.504 360.752 228.377 379.251 231.317C391.916 233.262 401.735 244.22 405.956 256.315C408.073 262.689 409.255 269.335 409.467 276.048C410.499 264.666 409.373 253.191 406.146 242.227V242.227Z" fill="black"/>
<path opacity="0.1" d="M680.169 158.933C678.03 166.88 673.843 174.126 668.026 179.947C651.993 193.323 626.711 180.705 607.215 188.153C603.31 190.061 599.304 191.756 595.214 193.228C582.834 196.548 570.786 188.485 559.829 181.607C548.871 174.729 533.74 170.033 524.253 178.618C511.873 189.86 520.838 213.909 508.078 224.724C500.014 231.65 487.207 229.468 478.242 234.923C469.277 240.377 466.573 252.9 464.297 263.383C462.02 273.866 457.513 286.246 447.031 289.377C436.548 292.507 426.871 285.629 416.578 286.009C414.443 286.009 411.835 286.341 410.554 284.776C410.212 284.408 409.953 283.971 409.795 283.495C409.795 287.005 409.795 290.515 409.463 294.025C409.213 295.687 409.603 297.383 410.554 298.769C411.977 300.334 414.443 300.097 416.578 300.002C426.871 299.622 437.117 306.311 447.031 303.37C456.944 300.429 462.02 288.049 464.297 277.376C466.573 266.703 469.04 254.513 478.242 248.678C487.444 242.844 500.014 245.358 508.078 238.48C520.838 227.665 511.873 203.616 524.253 192.374C533.74 183.789 548.871 188.722 559.829 195.363C570.786 202.003 582.834 210.304 595.214 206.984C599.388 205.846 603.136 203.474 607.215 201.908C626.711 194.461 651.993 207.079 668.026 193.702C673.854 187.871 678.042 180.607 680.169 172.642C684.575 161.914 687.557 150.656 689.039 139.153C689.371 135.233 689.276 131.289 688.754 127.39C687.114 138.199 684.233 148.783 680.169 158.933V158.933Z" fill="black"/>
</g>
<path d="M2061.56 2012.82C2064.13 2013.43 2066.09 2014.59 2067.44 2016.29C2068.82 2017.96 2069.49 2020.11 2069.44 2022.72C2069.38 2026.08 2068.08 2028.65 2065.54 2030.43C2063.05 2032.17 2059.37 2033 2054.52 2032.91L2036.49 2032.57L2037.23 1993.38L2054.14 1993.7C2058.51 1993.78 2061.87 1994.72 2064.22 1996.52C2066.62 1998.32 2067.78 2000.82 2067.72 2004.03C2067.68 2006.2 2067.11 2008.04 2065.99 2009.55C2064.92 2011.02 2063.44 2012.11 2061.56 2012.82ZM2041.31 1996.87L2041.04 2011.09L2053.53 2011.33C2056.7 2011.39 2059.16 2010.84 2060.9 2009.67C2062.64 2008.47 2063.53 2006.72 2063.57 2004.4C2063.61 2002.09 2062.79 2000.32 2061.09 1999.09C2059.4 1997.83 2056.97 1997.17 2053.8 1997.11L2041.31 1996.87ZM2054.53 2029.49C2058.04 2029.56 2060.7 2029.01 2062.51 2027.85C2064.33 2026.69 2065.26 2024.84 2065.31 2022.3C2065.4 2017.41 2061.9 2014.9 2054.81 2014.77L2040.98 2014.51L2040.7 2029.23L2054.53 2029.49ZM2089.89 2033.86C2087.06 2033.8 2084.51 2033.12 2082.26 2031.81C2080.01 2030.46 2078.25 2028.63 2076.99 2026.33C2075.72 2024.03 2075.12 2021.44 2075.17 2018.57C2075.23 2015.7 2075.93 2013.13 2077.28 2010.88C2078.63 2008.63 2080.45 2006.89 2082.75 2005.66C2085.05 2004.44 2087.62 2003.85 2090.46 2003.9C2093.3 2003.96 2095.84 2004.64 2098.09 2005.95C2100.35 2007.26 2102.09 2009.07 2103.31 2011.37C2104.58 2013.67 2105.18 2016.26 2105.13 2019.13C2105.07 2022.01 2104.37 2024.57 2103.02 2026.82C2101.71 2029.08 2099.9 2030.84 2097.6 2032.1C2095.3 2033.33 2092.73 2033.91 2089.89 2033.86ZM2089.96 2030.33C2092.05 2030.37 2093.93 2029.94 2095.59 2029.04C2097.28 2028.1 2098.62 2026.76 2099.58 2025.02C2100.55 2023.29 2101.05 2021.3 2101.1 2019.06C2101.14 2016.82 2100.71 2014.81 2099.81 2013.04C2098.91 2011.27 2097.63 2009.9 2095.97 2008.94C2094.34 2007.93 2092.48 2007.41 2090.39 2007.37C2088.3 2007.34 2086.41 2007.78 2084.71 2008.72C2083.05 2009.63 2081.72 2010.94 2080.72 2012.68C2079.75 2014.42 2079.25 2016.41 2079.2 2018.65C2079.16 2020.89 2079.59 2022.89 2080.49 2024.66C2081.43 2026.44 2082.71 2027.82 2084.33 2028.82C2085.99 2029.79 2087.87 2030.29 2089.96 2030.33ZM2130.68 2034.35L2121.57 2021.85L2111.93 2033.99L2107.45 2033.91L2119.38 2019.01L2108.56 2004.47L2113.04 2004.55L2121.67 2016.25L2130.73 2004.89L2135.1 2004.97L2123.75 2019.09L2135.22 2034.43L2130.68 2034.35ZM2157.38 2033.06C2156.62 2033.72 2155.68 2034.22 2154.55 2034.57C2153.46 2034.89 2152.32 2035.04 2151.12 2035.01C2148.36 2034.96 2146.25 2034.17 2144.78 2032.65C2143.32 2031.13 2142.61 2029.01 2142.66 2026.28L2143 2008.48L2137.74 2008.38L2137.8 2005.02L2143.06 2005.12L2143.18 1998.68L2147.16 1998.76L2147.04 2005.2L2156 2005.36L2155.93 2008.72L2146.97 2008.55L2146.64 2026.14C2146.61 2027.89 2147.01 2029.24 2147.85 2030.19C2148.73 2031.1 2149.99 2031.58 2151.64 2031.61C2152.46 2031.62 2153.24 2031.51 2154 2031.26C2154.78 2031.01 2155.46 2030.65 2156.03 2030.18L2157.38 2033.06ZM2191.68 2006.04L2191.12 2035.49L2187.31 2035.42L2187.41 2030.04C2186.34 2031.81 2184.87 2033.19 2183.02 2034.16C2181.18 2035.1 2179.08 2035.54 2176.73 2035.5C2172.88 2035.42 2169.86 2034.3 2167.66 2032.13C2165.5 2029.93 2164.46 2026.75 2164.53 2022.61L2164.86 2005.53L2168.83 2005.61L2168.52 2022.29C2168.46 2025.39 2169.18 2027.76 2170.68 2029.39C2172.18 2031.02 2174.35 2031.87 2177.19 2031.92C2180.28 2031.98 2182.75 2031.09 2184.57 2029.26C2186.4 2027.39 2187.35 2024.78 2187.41 2021.42L2187.7 2005.96L2191.68 2006.04ZM2206.51 2012.09C2207.48 2010.13 2208.89 2008.66 2210.74 2007.69C2212.62 2006.71 2214.93 2006.25 2217.65 2006.3L2217.58 2010.17L2216.63 2010.09C2213.53 2010.03 2211.09 2010.94 2209.3 2012.81C2207.5 2014.68 2206.58 2017.33 2206.51 2020.77L2206.23 2035.77L2202.25 2035.7L2202.81 2006.25L2206.62 2006.32L2206.51 2012.09ZM2249.91 2023.1L2225.28 2022.63C2225.44 2025.7 2226.57 2028.2 2228.67 2030.15C2230.76 2032.05 2233.43 2033.04 2236.67 2033.1C2238.5 2033.13 2240.19 2032.85 2241.73 2032.24C2243.27 2031.6 2244.62 2030.65 2245.76 2029.41L2247.95 2032.02C2246.62 2033.57 2244.95 2034.73 2242.96 2035.51C2241 2036.3 2238.85 2036.67 2236.5 2036.63C2233.47 2036.57 2230.8 2035.88 2228.47 2034.57C2226.18 2033.22 2224.4 2031.39 2223.14 2029.09C2221.88 2026.79 2221.27 2024.2 2221.33 2021.33C2221.38 2018.45 2222.04 2015.89 2223.32 2013.64C2224.63 2011.38 2226.38 2009.64 2228.57 2008.41C2230.8 2007.19 2233.27 2006.6 2236 2006.65C2238.72 2006.7 2241.16 2007.38 2243.3 2008.69C2245.44 2010 2247.1 2011.81 2248.29 2014.11C2249.48 2016.37 2250.05 2018.96 2249.99 2021.87L2249.91 2023.1ZM2235.93 2010.07C2233.1 2010.01 2230.69 2010.88 2228.71 2012.67C2226.78 2014.43 2225.65 2016.76 2225.33 2019.67L2246.22 2020.06C2246.01 2017.15 2244.96 2014.77 2243.05 2012.94C2241.18 2011.08 2238.81 2010.12 2235.93 2010.07Z" fill="white"/>
<defs>
<filter id="filter0_d" x="2594.5" y="1534" width="613.5" height="224.5" filterUnits="userSpaceOnUse" color-interpolation-filters="sRGB">
<feFlood flood-opacity="0" result="BackgroundImageFix"/>
<feColorMatrix in="SourceAlpha" type="matrix" values="0 0 0 0 0 0 0 0 0 0 0 0 0 0 0 0 0 0 127 0"/>
<feOffset dy="4"/>
<feGaussianBlur stdDeviation="2"/>
<feColorMatrix type="matrix" values="0 0 0 0 0 0 0 0 0 0 0 0 0 0 0 0 0 0 0.25 0"/>
<feBlend mode="normal" in2="BackgroundImageFix" result="effect1_dropShadow"/>
<feBlend mode="normal" in="SourceGraphic" in2="effect1_dropShadow" result="shape"/>
</filter>
<filter id="filter1_d" x="1711.5" y="1568" width="891.5" height="197.5" filterUnits="userSpaceOnUse" color-interpolation-filters="sRGB">
<feFlood flood-opacity="0" result="BackgroundImageFix"/>
<feColorMatrix in="SourceAlpha" type="matrix" values="0 0 0 0 0 0 0 0 0 0 0 0 0 0 0 0 0 0 127 0"/>
<feOffset dy="4"/>
<feGaussianBlur stdDeviation="2"/>
<feColorMatrix type="matrix" values="0 0 0 0 0 0 0 0 0 0 0 0 0 0 0 0 0 0 0.25 0"/>
<feBlend mode="normal" in2="BackgroundImageFix" result="effect1_dropShadow"/>
<feBlend mode="normal" in="SourceGraphic" in2="effect1_dropShadow" result="shape"/>
</filter>
</defs>
</svg>
