<svg width="886" height="1471" viewBox="0 0 886 1471" fill="none" xmlns="http://www.w3.org/2000/svg">
<path d="M369.5 701.5L374 586.5L373 588L48 648L369.5 701.5Z" fill="#565656"/>
<path d="M810 641.5L374 586.5L369.5 701.5L494 723L810 641.5Z" fill="#A3A3A3"/>
<path d="M372 588L396 553.5L831 603.5V639.5L812.5 641.5L372 588Z" fill="#AEAEAE"/>
<path d="M406.5 548L398 554L831 603.5L832 596.5L406.5 548Z" fill="#6B6B6B"/>
<path d="M406 539L396 553.5H398.5L406.5 548L406 539Z" fill="#9C9C9C"/>
<path d="M402.5 475V471L833 509.5V512L402.5 475Z" fill="#616161"/>
<path d="M832 596.5L406.5 548L402.708 475L832 511V596.5Z" fill="#B7B7B7"/>
<path d="M818.5 539.5L746.5 657.5L778 649.5L824 572L828 571L832.5 567V539.5H818.5Z" fill="#717171"/>
<path d="M345 153.5L346 166.5L330 147.5L322 47.5L343.5 46L345 115.5L382 114L384 150L345 153.5Z" fill="#898989"/>
<path d="M367.5 564L345 154L352.5 157.5L371.5 563L367.5 564Z" fill="#C4C4C4"/>
<path d="M345 115L343 46.5L819 18.5L817 101L345 115Z" fill="#474747"/>
<path d="M320 148L314 47.5L322 47L329.5 148L345.5 166.5L369 589L360 589.5L337.5 170.5L320 148Z" fill="#C4C4C4"/>
<path d="M485 731.5L0 650L13 1290L468.5 1470.5L485 731.5Z" fill="#747474"/>
<path d="M802 1258L468.5 1470.5L485 731.5L832.5 640.5L802 1258Z" fill="#8D8D8D"/>
<path d="M0 650L360 587.5L369 589L48 648L494 723.141L813 640.5H832.5L508 725.5L485 731.5L0 650Z" fill="#8D8D8D"/>
<path d="M843 640.5H832.5L834 171L836 168L840.5 166.5L844.5 166L842 164.5L838.5 164L835 162.5L829.5 159L824 151L820.5 146.5C819.833 145.833 818.6 144.2 819 143C819.5 141.5 821 139 824.5 140L844.5 166L843 640.5Z" fill="#C4C4C4"/>
<path d="M817.5 131.5L819 18.5L314 47.5L313.5 33L831.5 4.5L828 137H826L824 137.5L821.5 137L820 136L818 134.5L817.5 131.5Z" fill="#C4C4C4"/>
<path d="M877 0.5L831.5 4.5L828.5 136.5L824.5 137.5V140L844.5 166L843 640.5L881.5 622.5L886 18L877 0.5Z" fill="#ABABAB"/>
<path d="M402.5 471L382 114L816.5 101V137L820 147L833.5 163.5L832 509.5L402.5 471Z" fill="#343434"/>
<path d="M404 500L384 152.5L352.5 157L370.5 554.5L395 521.5C394.5 510.333 407.5 496.5 404 500Z" fill="#A9A9A9"/>
<path d="M410.5 532.5L344 628L335.5 629.5L329.5 626.5L325 626L393 524.5L395 520L398.5 509L404.5 500H408.5L417.5 504L422.5 510L410.5 532.5Z" fill="#838383"/>
<path d="M351.5 156.5L345 153.5L384 150V152.5L351.5 156.5Z" fill="#7A7A7A"/>
<rect width="115" height="115" transform="matrix(0.985556 0.16935 0 1 160 790)" fill="#C4C4C4"/>
<path d="M226.282 888.188L226.278 891.438L229.481 891.992L229.485 888.742L226.282 888.188Z" fill="black"/>
<path d="M184.669 858.239L184.676 851.74L187.879 852.294L187.875 855.544L194.282 856.652L194.293 846.904L200.699 848.012L200.695 851.262L207.101 852.37L207.097 855.619L197.488 853.957L197.481 860.455L184.669 858.239Z" fill="black"/>
<rect width="19.5" height="19.5" transform="matrix(0.985555 0.170511 -0.00114492 0.999803 184.713 819.247)" fill="black"/>
<path d="M189.179 834.969L189.191 824.571L199.44 826.344L199.429 836.742L189.179 834.969Z" stroke="#C8C8C8" stroke-width="2.03889"/>
<rect width="19.5" height="19.5" transform="matrix(0.985555 0.170511 -0.00114492 0.999803 229.556 827.005)" fill="black"/>
<path d="M234.023 842.728L234.035 832.33L244.284 834.103L244.273 844.501L234.023 842.728Z" stroke="#C8C8C8" stroke-width="2.03889"/>
<rect width="19.5" height="19.5" transform="matrix(0.985555 0.170511 -0.00114492 0.999803 184.661 864.737)" fill="black"/>
<path d="M189.128 880.46L189.14 870.062L199.39 871.836L199.378 882.234L189.128 880.46Z" stroke="#C8C8C8" stroke-width="2.03889"/>
<path d="M245.5 891.513L245.497 894.763L248.7 895.317L248.704 892.067L245.5 891.513Z" fill="black"/>
<path d="M187.883 849.045L184.68 848.491L184.687 841.992L194.296 843.654L194.293 846.904L187.887 845.796L187.883 849.045Z" fill="black"/>
<path d="M207.105 849.12L200.699 848.012L200.703 844.763L207.109 845.871L207.105 849.12Z" fill="black"/>
<path d="M207.071 878.365L207.06 888.113L216.669 889.775L216.673 886.526L213.47 885.972L213.474 882.722L210.271 882.168L210.274 878.919L207.071 878.365Z" fill="black"/>
<path d="M219.879 883.831L219.876 887.08L223.079 887.634L223.082 884.385L219.879 883.831Z" fill="black"/>
<path d="M242.312 877.962L242.309 881.211L245.512 881.765L245.516 878.516L242.312 877.962Z" fill="black"/>
<path d="M245.522 872.017L245.519 875.266L248.722 875.821L248.726 872.571L245.522 872.017Z" fill="black"/>
<path d="M242.327 864.964L242.323 868.214L245.526 868.768L245.53 865.518L242.327 864.964Z" fill="black"/>
<path d="M226.312 862.193L226.308 865.443L229.511 865.997L229.515 862.748L226.312 862.193Z" fill="black"/>
<path d="M207.083 868.617L207.079 871.866L210.282 872.42L210.286 869.171L207.083 868.617Z" fill="black"/>
<path d="M194.274 863.151L194.278 859.901L203.887 861.564L203.891 858.314L210.297 859.423L210.301 856.173L213.504 856.728L213.507 853.478L210.304 852.924L210.308 849.675L210.315 843.176L207.112 842.622L207.12 836.123L216.729 837.786L216.722 844.284L213.518 843.73L213.511 850.229L216.714 850.783L216.718 847.534L219.921 848.088L219.928 841.589L227.616 842.919L227.612 846.168L223.128 845.393L223.124 848.642L223.12 851.891L223.116 855.791L219.913 855.236L219.917 851.337L216.714 850.783L216.707 857.282L226.316 858.944L226.312 862.193L216.703 860.531L213.5 859.977L213.496 863.226L210.293 862.672L210.289 865.921L194.274 863.151Z" fill="black"/>
<path d="M213.489 869.725L213.492 866.476L216.695 867.03L216.692 870.279L213.489 869.725Z" fill="black"/>
<path d="M226.301 871.942L219.895 870.833L219.902 864.335L223.105 864.889L223.102 868.138L226.305 868.692L226.301 871.942Z" fill="black"/>
<path d="M207.127 829.624L207.135 823.126L226.353 826.451L226.349 829.7L223.146 829.146L223.143 832.395L226.346 832.949L226.338 839.448L223.135 838.894L223.139 835.645L219.936 835.09L219.939 831.841L216.736 831.287L213.533 830.733L213.53 833.982L210.327 833.428L210.33 830.179L207.127 829.624Z" fill="black"/>
<path d="M239.132 857.911L239.128 861.161L242.331 861.715L242.335 858.466L239.132 857.911Z" fill="black"/>
<path d="M239.091 893.654L235.888 893.1L235.895 886.601L232.692 886.047L232.696 882.798L235.899 883.352L235.903 880.103L216.684 876.778L216.681 880.027L210.275 878.919L210.282 872.42L216.688 873.528L232.703 876.299L232.707 873.05L229.504 872.496L229.511 865.997L235.918 867.105L235.921 863.856L232.718 863.302L232.722 860.052L232.726 856.803L226.32 855.695L226.328 848.546L235.937 850.209L235.932 854.108L239.135 854.662L239.132 857.911L235.929 857.357L235.925 860.607L239.128 861.161L239.121 867.659L242.324 868.214L242.316 874.712L239.113 874.158L239.106 880.657L242.309 881.211L242.305 884.46L248.711 885.569L248.707 888.818L239.098 887.156L239.091 893.654Z" fill="black"/>
<path d="M248.749 852.425L242.343 851.317L242.339 855.216L245.542 855.77L245.534 862.269L248.737 862.823L248.749 852.425Z" fill="black"/>
<path d="M223.083 884.385L223.09 877.886L229.496 878.994L229.489 885.493L223.083 884.385Z" fill="black"/>
<path d="M136.156 948.119C138.676 949.214 140.611 950.746 141.963 952.713C143.35 954.65 144.044 956.926 144.044 959.539C144.044 962.899 142.821 965.234 140.374 966.543C137.964 967.823 134.385 967.958 129.638 966.949L112 963.2V924L128.542 927.516C132.815 928.424 136.12 930.004 138.457 932.256C140.831 934.515 142.017 937.25 142.017 940.46C142.017 942.626 141.488 944.361 140.429 945.667C139.406 946.943 137.982 947.76 136.156 948.119ZM116.053 928.278V942.502L128.269 945.098C131.373 945.758 133.764 945.669 135.444 944.831C137.124 943.956 137.964 942.361 137.964 940.047C137.964 937.732 137.124 935.799 135.444 934.247C133.764 932.658 131.373 931.534 128.269 930.874L116.053 928.278ZM129.583 963.521C133.016 964.251 135.609 964.205 137.361 963.383C139.114 962.561 139.991 960.88 139.991 958.342C139.991 953.451 136.522 950.268 129.583 948.793L116.053 945.918V960.646L129.583 963.521Z" fill="white"/>
<path d="M164.251 974.586C161.476 973.996 158.975 972.83 156.747 971.087C154.52 969.307 152.767 967.143 151.489 964.594C150.21 962.045 149.571 959.333 149.571 956.458C149.571 953.583 150.21 951.143 151.489 949.138C152.767 947.132 154.52 945.731 156.747 944.935C158.975 944.139 161.476 944.036 164.251 944.626C167.027 945.216 169.528 946.383 171.756 948.125C173.983 949.868 175.718 952.01 176.96 954.552C178.238 957.101 178.877 959.812 178.877 962.687C178.877 965.562 178.238 968.002 176.96 970.008C175.718 972.021 173.983 973.444 171.756 974.277C169.528 975.073 167.027 975.176 164.251 974.586ZM164.251 971.058C166.296 971.493 168.122 971.414 169.729 970.823C171.372 970.201 172.65 969.11 173.563 967.55C174.476 965.989 174.933 964.089 174.933 961.849C174.933 959.609 174.476 957.514 173.563 955.566C172.65 953.617 171.372 952.001 169.729 950.719C168.122 949.406 166.296 948.533 164.251 948.098C162.206 947.664 160.362 947.757 158.719 948.378C157.112 948.97 155.834 950.043 154.885 951.595C153.972 953.156 153.515 955.056 153.515 957.296C153.515 959.536 153.972 961.631 154.885 963.579C155.834 965.536 157.112 967.17 158.719 968.482C160.362 969.765 162.206 970.624 164.251 971.058Z" fill="white"/>
<path d="M204.15 982.787L195.003 968.523L185.8 978.887L181.418 977.955L192.812 965.257L181.966 948.616L186.348 949.547L195.003 962.923L203.657 953.226L207.93 954.135L197.084 966.165L208.587 983.73L204.15 982.787Z" fill="white"/>
<path d="M230.234 986.539C229.503 987.056 228.59 987.385 227.495 987.525C226.436 987.636 225.322 987.567 224.154 987.319C221.451 986.745 219.37 985.555 217.909 983.752C216.448 981.948 215.718 979.683 215.718 976.958V959.15L210.569 958.055V954.695L215.718 955.79V949.35L219.607 950.177V956.617L228.371 958.479V961.839L219.607 959.977V977.561C219.607 979.315 220.027 980.749 220.867 981.86C221.743 982.943 222.985 983.655 224.592 983.996C225.395 984.167 226.162 984.199 226.892 984.093C227.659 983.995 228.317 983.761 228.864 983.392L230.234 986.539Z" fill="white"/>
<path d="M263.277 965.899V995.355L259.553 994.563V989.187C258.53 990.762 257.124 991.863 255.335 992.491C253.546 993.081 251.501 993.132 249.2 992.643C245.439 991.843 242.463 990.147 240.271 987.553C238.117 984.93 237.04 981.546 237.04 977.402V960.322L240.929 961.149V977.837C240.929 980.935 241.677 983.446 243.175 985.37C244.672 987.294 246.808 988.55 249.583 989.14C252.614 989.785 255.006 989.36 256.759 987.866C258.512 986.334 259.388 983.888 259.388 980.528V965.072L263.277 965.899Z" fill="white"/>
<path d="M277.895 974.774C278.808 972.989 280.159 971.783 281.948 971.156C283.774 970.536 286.02 970.509 288.686 971.076V974.94L287.754 974.686C284.723 974.041 282.35 974.489 280.633 976.028C278.917 977.567 278.059 980.054 278.059 983.489V998.497L274.17 997.67V968.214L277.895 969.006V974.774Z" fill="white"/>
<path d="M320.547 994.032L296.446 988.909C296.665 992.017 297.815 994.744 299.897 997.091C301.978 999.4 304.607 1000.89 307.784 1001.57C309.574 1001.95 311.217 1001.98 312.714 1001.66C314.212 1001.31 315.508 1000.61 316.603 999.578L318.795 1002.62C317.516 1003.92 315.91 1004.77 313.974 1005.18C312.075 1005.6 309.976 1005.56 307.675 1005.07C304.717 1004.44 302.088 1003.25 299.787 1001.49C297.523 999.703 295.752 997.535 294.474 994.986C293.196 992.437 292.557 989.725 292.557 986.851C292.557 983.976 293.159 981.528 294.364 979.507C295.606 977.493 297.286 976.077 299.404 975.258C301.558 974.447 303.968 974.324 306.634 974.891C309.3 975.457 311.692 976.6 313.81 978.32C315.928 980.04 317.589 982.166 318.795 984.7C320 987.196 320.602 989.9 320.602 992.812L320.547 994.032ZM306.634 978.307C303.859 977.717 301.522 978.135 299.623 979.56C297.76 980.957 296.701 983.083 296.446 985.941L316.877 990.284C316.622 987.318 315.544 984.737 313.646 982.541C311.783 980.316 309.446 978.904 306.634 978.307Z" fill="white"/>
</svg>
