<svg width="509" height="316" viewBox="0 0 509 316" fill="none" xmlns="http://www.w3.org/2000/svg">
<path d="M430.877 315.831H74.7502C54.6987 315.834 35.4178 308.106 20.9189 294.256C6.41997 280.405 -2.18057 261.497 -3.09346 241.466C-4.00635 221.436 2.83871 201.824 16.0176 186.712C29.1966 171.599 47.6946 162.15 67.6634 160.33C68.7508 144.34 73.5014 128.815 81.5479 114.955C89.5945 101.095 100.721 89.271 114.068 80.3984C127.414 71.5258 142.622 65.8419 158.516 63.7864C174.411 61.7309 190.565 63.3588 205.729 68.5442C220.202 40.9866 244.34 19.743 273.513 8.88841C302.686 -1.96616 334.84 -1.66733 363.806 9.72757C392.773 21.1225 416.512 42.8111 430.47 70.6329C444.429 98.4547 447.623 130.451 439.441 160.483C459.249 162.664 477.468 172.352 490.352 187.554C503.235 202.757 509.804 222.318 508.708 242.215C507.611 262.112 498.931 280.833 484.455 294.527C469.978 308.221 450.805 315.847 430.877 315.838V315.831ZM171.823 77.5692C148.026 77.5963 125.211 87.0617 108.384 103.889C91.5564 120.716 82.0909 143.531 82.0638 167.329C82.0638 169.268 81.2932 171.129 79.9217 172.5C78.5501 173.872 76.6899 174.642 74.7502 174.642C57.9662 174.642 41.8695 181.31 30.0014 193.178C18.1333 205.046 11.4659 221.142 11.4659 237.927C11.4659 254.711 18.1333 270.807 30.0014 282.675C41.8695 294.543 57.9662 301.211 74.7502 301.211H430.877C439.188 301.211 447.417 299.574 455.095 296.394C462.773 293.213 469.75 288.552 475.626 282.675C481.503 276.799 486.164 269.822 489.344 262.144C492.525 254.466 494.162 246.237 494.162 237.927C494.162 229.616 492.525 221.387 489.344 213.709C486.164 206.031 481.503 199.054 475.626 193.178C469.75 187.301 462.773 182.64 455.095 179.459C447.417 176.279 439.188 174.642 430.877 174.642H429.678C428.512 174.641 427.363 174.362 426.327 173.827C425.291 173.292 424.397 172.516 423.722 171.566C423.046 170.616 422.608 169.517 422.443 168.363C422.278 167.208 422.391 166.031 422.774 164.93C427.004 152.947 429.195 140.339 429.254 127.631C429.271 102.139 420.573 77.4078 404.603 57.539C388.633 37.6701 366.351 23.8579 341.452 18.3936C316.553 12.9292 290.534 16.141 267.712 27.4962C244.889 38.8515 226.634 57.6677 215.975 80.8237C215.177 82.5407 213.744 83.8812 211.978 84.5632C210.211 85.2452 208.249 85.2155 206.504 84.4805C195.521 79.8845 183.729 77.5345 171.823 77.5692V77.5692Z" fill="#FFB74A"/>
<path d="M213.262 222.861L225.775 226.02C223.814 235.215 218.833 243.49 211.624 249.526C204.48 255.033 195.649 257.894 186.633 257.622C177.916 258.007 169.275 255.845 161.767 251.398C155.188 247.014 150.103 240.727 147.191 233.378C143.829 225.355 142.13 216.734 142.196 208.036C141.988 199.119 143.924 190.283 147.842 182.27C151.369 175.187 156.985 169.356 163.932 165.566C170.963 161.74 178.856 159.776 186.86 159.862C195.391 159.578 203.777 162.118 210.717 167.087C217.346 172.168 222.089 179.315 224.196 187.397L211.879 190.323C210.345 184.45 207.023 179.2 202.372 175.3C197.793 172.034 192.261 170.378 186.64 170.591C180.168 170.357 173.788 172.185 168.422 175.812C163.572 179.257 159.965 184.178 158.139 189.84C156.164 195.688 155.161 201.82 155.17 207.992C155.023 215.168 156.216 222.309 158.688 229.048C160.701 234.64 164.557 239.38 169.622 242.49C174.47 245.433 180.04 246.972 185.712 246.937C192.181 247.123 198.501 244.97 203.513 240.874C208.708 236.146 212.145 229.796 213.262 222.861V222.861Z" fill="#FFB74A"/>
<path d="M186.626 258.565C177.733 258.94 168.923 256.728 161.262 252.195C154.54 247.701 149.34 241.272 146.35 233.758C142.947 225.62 141.223 216.879 141.282 208.058C141.083 198.998 143.051 190.021 147.023 181.875C150.637 174.645 156.366 168.686 163.449 164.791C170.626 160.882 178.681 158.868 186.853 158.94C195.582 158.666 204.16 161.269 211.265 166.349C218.033 171.572 222.872 178.896 225.022 187.17L225.293 188.092L211.207 191.405L210.951 190.6C209.46 184.918 206.246 179.836 201.75 176.054C197.326 172.915 191.989 171.324 186.567 171.527C180.286 171.303 174.094 173.07 168.876 176.573C164.191 179.915 160.705 184.673 158.929 190.147C156.988 195.901 156 201.934 156.004 208.007C155.865 215.067 157.035 222.092 159.456 228.726C161.403 234.123 165.12 238.702 170.002 241.715C174.7 244.563 180.093 246.059 185.587 246.037C191.842 246.212 197.951 244.135 202.804 240.186C207.874 235.607 211.245 229.446 212.37 222.707L212.567 221.786L226.88 225.398L226.653 226.283C224.634 235.672 219.541 244.119 212.18 250.287C204.868 255.903 195.842 258.827 186.626 258.565V258.565ZM186.816 160.805C178.966 160.73 171.227 162.656 164.327 166.4C157.563 170.118 152.093 175.81 148.647 182.716C144.808 190.602 142.91 199.29 143.11 208.058C143.052 216.635 144.729 225.136 148.039 233.048C150.887 240.223 155.848 246.362 162.264 250.652C169.627 254.99 178.089 257.101 186.626 256.73C195.434 256.984 204.061 254.195 211.053 248.831C217.864 243.124 222.633 235.356 224.642 226.7L213.942 223.994C212.633 230.779 209.13 236.946 203.974 241.547C198.792 245.768 192.269 247.992 185.587 247.815C179.762 247.837 174.043 246.253 169.059 243.236C163.827 240.028 159.837 235.143 157.737 229.377C155.229 222.532 154.016 215.281 154.161 207.992C154.154 201.721 155.172 195.49 157.174 189.547C159.068 183.708 162.791 178.633 167.793 175.074C173.316 171.344 179.878 169.457 186.538 169.684C192.357 169.475 198.082 171.193 202.825 174.569C207.434 178.372 210.786 183.478 212.443 189.218L222.996 186.732C220.846 179.21 216.333 172.579 210.124 167.819C203.336 162.989 195.15 160.523 186.823 160.798L186.816 160.805Z" fill="#FFB74A"/>
<path d="M237.375 209.996C236.583 196.523 241.125 183.279 250.02 173.128C254.209 168.728 259.283 165.266 264.908 162.97C270.533 160.674 276.581 159.597 282.653 159.81C290.944 159.694 299.108 161.857 306.254 166.063C313.208 170.169 318.789 176.244 322.293 183.521C326.071 191.439 327.959 200.127 327.807 208.899C327.959 217.817 325.967 226.64 322 234.628C318.409 241.906 312.67 247.905 305.559 251.815C298.532 255.694 290.628 257.709 282.602 257.666C274.201 257.8 265.933 255.565 258.745 251.215C251.834 247.024 246.298 240.906 242.816 233.612C239.216 226.261 237.354 218.181 237.375 209.996ZM250.268 210.186C249.716 220.013 253.01 229.668 259.454 237.107C262.453 240.226 266.052 242.705 270.034 244.395C274.016 246.086 278.3 246.953 282.626 246.944C286.952 246.935 291.232 246.051 295.207 244.344C299.182 242.637 302.771 240.143 305.757 237.012C312.279 229.126 315.544 219.046 314.884 208.833C315.039 201.916 313.71 195.045 310.986 188.684C308.602 183.191 304.629 178.537 299.577 175.322C294.529 172.151 288.672 170.505 282.712 170.583C278.487 170.519 274.291 171.293 270.367 172.86C266.443 174.426 262.868 176.755 259.849 179.711C253.467 185.795 250.276 195.954 250.276 210.186H250.268Z" fill="#FFB74A"/>
<path d="M282.58 258.565C274.01 258.692 265.578 256.411 258.24 251.983C251.188 247.692 245.534 241.444 241.967 233.999C238.321 226.524 236.437 218.313 236.46 209.996C235.692 196.298 240.318 182.844 249.347 172.514C253.627 168.031 258.806 164.502 264.544 162.158C270.282 159.814 276.45 158.707 282.646 158.911C291.1 158.806 299.423 161.014 306.714 165.295C313.809 169.494 319.506 175.695 323.09 183.119C326.923 191.164 328.843 199.988 328.699 208.899C328.841 217.96 326.817 226.924 322.797 235.045C319.107 242.472 313.239 248.595 305.976 252.598C298.812 256.544 290.759 258.598 282.58 258.565V258.565ZM282.646 160.739C276.7 160.54 270.78 161.598 265.271 163.844C259.762 166.09 254.79 169.473 250.678 173.772C241.979 183.766 237.535 196.768 238.296 209.996C238.277 218.034 240.098 225.969 243.62 233.195C247.038 240.324 252.452 246.308 259.206 250.418C266.262 254.672 274.371 256.859 282.609 256.73C290.477 256.768 298.224 254.799 305.12 251.01C312.073 247.175 317.687 241.306 321.21 234.189C325.098 226.326 327.052 217.648 326.907 208.877C327.052 200.245 325.197 191.697 321.488 183.901C318.057 176.797 312.608 170.863 305.822 166.839C298.798 162.73 290.783 160.62 282.646 160.739V160.739ZM282.514 247.858C278.067 247.956 273.65 247.104 269.559 245.359C265.467 243.613 261.795 241.015 258.789 237.736C252.2 230.118 248.818 220.244 249.354 210.186C249.354 195.764 252.674 185.32 259.22 179.06C262.327 176.028 266 173.64 270.032 172.031C274.063 170.422 278.371 169.624 282.711 169.684C288.842 169.611 294.864 171.305 300.059 174.562C305.258 177.872 309.352 182.656 311.819 188.304C314.587 194.787 315.943 201.785 315.798 208.833C316.449 219.274 313.102 229.571 306.437 237.634C303.421 240.959 299.723 243.593 295.595 245.358C291.468 247.122 287.008 247.975 282.521 247.858H282.514ZM282.704 171.512C278.597 171.457 274.519 172.212 270.704 173.734C266.889 175.256 263.412 177.516 260.471 180.383C254.305 186.234 251.175 196.283 251.175 210.193C250.645 219.786 253.854 229.21 260.127 236.486C263.04 239.512 266.534 241.917 270.4 243.557C274.266 245.198 278.424 246.039 282.624 246.031C286.824 246.023 290.978 245.165 294.838 243.51C298.698 241.854 302.183 239.435 305.084 236.398C311.427 228.665 314.6 218.814 313.962 208.833C314.107 202.054 312.805 195.323 310.145 189.086C307.823 183.767 303.971 179.258 299.079 176.134C294.18 173.054 288.498 171.447 282.711 171.505L282.704 171.512Z" fill="#FFB74A"/>
<path d="M386.74 254.536V260.818H351.547C351.484 259.27 351.732 257.726 352.278 256.276C353.29 253.685 354.746 251.29 356.578 249.197C359.189 246.272 362.05 243.58 365.128 241.152C369.439 237.843 373.364 234.06 376.83 229.874C378.66 227.646 379.728 224.891 379.879 222.012C379.906 220.781 379.673 219.558 379.194 218.424C378.715 217.289 378.001 216.269 377.1 215.43C376.13 214.528 374.99 213.828 373.747 213.37C372.505 212.912 371.183 212.705 369.86 212.76C368.475 212.696 367.091 212.914 365.792 213.4C364.493 213.887 363.307 214.632 362.305 215.591C361.327 216.639 360.569 217.874 360.076 219.22C359.584 220.567 359.367 221.999 359.438 223.431L352.724 222.744C352.879 218.391 354.745 214.275 357.917 211.29C361.32 208.525 365.627 207.121 370.006 207.348C374.45 207.11 378.809 208.637 382.132 211.598C383.588 212.933 384.744 214.562 385.524 216.378C386.303 218.193 386.687 220.154 386.652 222.129C386.645 224.29 386.2 226.428 385.343 228.412C384.256 230.798 382.792 232.993 381.006 234.913C377.853 238.252 374.487 241.381 370.928 244.282C367.027 247.573 364.509 249.806 363.373 250.981C362.333 252.062 361.409 253.248 360.615 254.521L386.74 254.536Z" fill="#FFB74A"/>
<path d="M388.575 262.646H349.813L349.733 260.891C349.674 259.099 349.975 257.314 350.618 255.64C351.692 252.853 353.244 250.274 355.203 248.019C357.881 245.004 360.818 242.229 363.98 239.726C368.18 236.505 372.006 232.826 375.389 228.755C376.982 226.837 377.927 224.464 378.088 221.976C378.114 220.998 377.932 220.026 377.553 219.125C377.175 218.223 376.609 217.412 375.893 216.746C375.095 216 374.154 215.421 373.128 215.044C372.102 214.667 371.01 214.5 369.918 214.552C368.774 214.487 367.629 214.657 366.554 215.052C365.478 215.447 364.495 216.059 363.665 216.849C362.851 217.731 362.225 218.769 361.824 219.901C361.423 221.032 361.255 222.233 361.332 223.431V225.442L350.815 224.396L350.976 222.597C351.172 217.777 353.262 213.228 356.79 209.937C360.525 206.883 365.259 205.319 370.079 205.549C374.992 205.312 379.8 207.02 383.463 210.303C385.088 211.814 386.376 213.651 387.243 215.694C388.11 217.737 388.537 219.94 388.495 222.158C388.483 224.564 387.986 226.942 387.032 229.15C385.864 231.72 384.291 234.085 382.373 236.157C379.171 239.559 375.751 242.75 372.134 245.708C368.295 248.926 365.801 251.135 364.726 252.29L364.301 252.744H388.568L388.575 262.646ZM353.47 258.99H384.918V256.364H357.397L359.08 253.585C359.937 252.2 360.94 250.911 362.071 249.738C363.256 248.487 365.779 246.249 369.787 242.892C373.273 240.047 376.573 236.981 379.667 233.714C381.319 231.942 382.677 229.917 383.69 227.717C384.448 225.959 384.843 224.066 384.853 222.151C384.898 220.427 384.574 218.713 383.901 217.125C383.229 215.536 382.224 214.111 380.954 212.943C379.48 211.635 377.761 210.631 375.897 209.988C374.034 209.346 372.061 209.078 370.094 209.199C366.161 208.985 362.287 210.227 359.211 212.687C356.798 214.896 355.254 217.894 354.86 221.142L357.785 221.449C358.035 218.769 359.194 216.256 361.069 214.326C362.238 213.195 363.624 212.314 365.144 211.735C366.664 211.157 368.286 210.894 369.911 210.961C371.47 210.904 373.024 211.155 374.485 211.701C375.947 212.247 377.285 213.077 378.424 214.143C379.5 215.148 380.352 216.368 380.927 217.723C381.501 219.079 381.785 220.54 381.759 222.012C381.611 225.282 380.416 228.417 378.351 230.957C374.797 235.275 370.757 239.169 366.313 242.563C363.319 244.929 360.537 247.549 357.997 250.396C356.303 252.329 354.957 254.542 354.019 256.934C353.772 257.599 353.595 258.288 353.492 258.99H353.47Z" fill="#FFB74A"/>
</svg>
