<svg width="330" height="330" viewBox="0 0 330 330" fill="none" xmlns="http://www.w3.org/2000/svg">
<rect x="90" y="90" width="240" height="240" fill="#1F35EE"/>
<path d="M0 240L90 330V90L0 0V240Z" fill="#4154F1"/>
<path d="M90 90L0 0H240L330 90H90Z" fill="#8590F1"/>
<path d="M238.75 288.25V297H247.5V288.25H238.75Z" fill="white"/>
<path d="M125 227V209.5H133.75V218.25H151.25V192H168.75V200.75H186.25V209.5H160V227H125Z" fill="white"/>
<rect x="125" y="122" width="52.5" height="52.5" fill="white"/>
<path d="M137.25 162.25V134.25H165.25V162.25H137.25Z" stroke="#1F35EE" stroke-width="7"/>
<rect x="247.5" y="122" width="52.5" height="52.5" fill="white"/>
<path d="M259.75 162.25V134.25H287.75V162.25H259.75Z" stroke="#1F35EE" stroke-width="7"/>
<rect x="125" y="244.5" width="52.5" height="52.5" fill="white"/>
<path d="M137.25 284.75V256.75H165.25V284.75H137.25Z" stroke="#1F35EE" stroke-width="7"/>
<path d="M291.25 288.25V297H300V288.25H291.25Z" fill="white"/>
<path d="M133.75 200.75H125V183.25H151.25V192H133.75V200.75Z" fill="white"/>
<path d="M186.25 192H168.75V183.25H186.25V192Z" fill="white"/>
<path d="M186.25 270.75V297H212.5V288.25H203.75V279.5H195V270.75H186.25Z" fill="white"/>
<path d="M221.25 279.5V288.25H230V279.5H221.25Z" fill="white"/>
<path d="M282.5 253.25V262H291.25V253.25H282.5Z" fill="white"/>
<path d="M291.25 235.75V244.5H300V235.75H291.25Z" fill="white"/>
<path d="M282.5 218.25V227H291.25V218.25H282.5Z" fill="white"/>
<path d="M238.75 218.25V227H247.5V218.25H238.75Z" fill="white"/>
<path d="M186.25 244.5V253.25H195V244.5H186.25Z" fill="white"/>
<path d="M151.25 235.75V227H177.5V218.25H195V209.5H203.75V200.75H195V192V174.5H186.25V157H212.5V174.5H203.75V192H212.5V183.25H221.25V165.75H242.25V174.5H230V183.25V192V202.5H221.25V192H212.5V209.5H238.75V218.25H212.5H203.75V227H195V235.75H151.25Z" fill="white"/>
<path d="M203.75 244.5V235.75H212.5V244.5H203.75Z" fill="white"/>
<path d="M238.75 244.5H221.25V227H230V235.75H238.75V244.5Z" fill="white"/>
<path d="M186.25 139.5V122H238.75V130.75H230V139.5H238.75V157H230V148.25H221.25V139.5H212.5H203.75V148.25H195V139.5H186.25Z" fill="white"/>
<path d="M273.75 200.75V209.5H282.5V200.75H273.75Z" fill="white"/>
<path d="M273.75 297H265V279.5H256.25V270.75H265V262H212.5V270.75H195V253.25H212.5H256.25V244.5H247.5V227H265V218.25H256.25V209.5V200.75H238.75V181.5H265V192H273.75V200.75H265V209.5H273.75V227H282.5V244.5H273.75V262H282.5V270.75H300V279.5H273.75V297Z" fill="white"/>
<path d="M300 181.5H282.5V192H291.25V209.5H300V181.5Z" fill="white"/>
<path d="M230 279.5V262H247.5V279.5H230Z" fill="white"/>
</svg>
