<svg width="512" height="512" viewBox="0 0 512 512" fill="none" xmlns="http://www.w3.org/2000/svg">
<g clip-path="url(#clip0)">
<path d="M426.549 283.934L350.1 164.091C360.932 158.399 368.341 147.04 368.341 133.977C368.341 119.679 359.466 107.423 346.938 102.405L370.097 21.4364C371.096 17.9432 370.122 14.1839 367.554 11.6148C352.148 -3.79016 327.083 -3.79016 311.677 11.6148C307.991 15.3 303.092 17.3291 297.881 17.3291C292.67 17.3291 287.77 15.3 284.062 11.5908L284.013 11.5418C268.662 -3.81116 243.64 -3.85417 228.227 11.4508L227.94 11.7368C220.332 19.2902 207.976 19.2682 200.397 11.6878L200.324 11.6148C184.918 -3.79016 159.853 -3.79016 144.447 11.6148C141.876 14.1859 140.903 17.9482 141.904 21.4434L165.114 102.386C152.559 107.391 143.66 119.66 143.66 133.978C143.66 147.041 151.068 158.4 161.901 164.092L85.451 283.934C55.8752 330.297 54.0011 386.766 80.4377 434.988C106.874 483.21 155.489 512 210.484 512H301.515C356.508 512 405.123 483.21 431.561 434.988C457.998 386.766 456.124 330.297 426.549 283.934V283.934ZM186.18 25.7576L186.253 25.8306C201.606 41.1826 226.628 41.2246 242.04 25.9216L242.327 25.6356C249.933 18.0822 262.289 18.1042 269.892 25.7076L269.941 25.7566C285.347 41.1616 310.413 41.1616 325.819 25.7566C332.087 19.4882 341.595 18.3852 349.003 22.4474L326.83 99.9751H185.231L163 22.4464C170.408 18.3852 179.913 19.4902 186.18 25.7576V25.7576ZM414.023 425.374C391.152 467.092 349.093 492 301.516 492H210.485C162.908 492 120.849 467.093 97.9778 425.374C75.1064 383.655 76.7275 334.802 102.314 294.691L183.144 167.979H210.998C216.521 167.979 220.998 163.502 220.998 157.979C220.998 152.455 216.521 147.978 210.998 147.978H177.662C169.941 147.978 163.661 141.698 163.661 133.977C163.661 126.257 169.941 119.976 177.662 119.976H177.695H334.338C342.059 119.976 348.339 126.257 348.339 133.977C348.339 141.698 342.059 147.978 334.338 147.978H301.003C295.48 147.978 291.002 152.455 291.002 157.979C291.002 163.502 295.48 167.979 301.003 167.979H328.856L409.687 294.691C435.273 334.801 436.894 383.654 414.023 425.374Z" fill="#04B900"/>
<path d="M273.632 326.599C271.122 325.712 268.561 324.789 266.001 323.83V278.505C272.782 280.5 277.31 283.735 277.502 283.875C281.901 287.17 288.143 286.296 291.467 281.909C294.802 277.507 293.937 271.234 289.535 267.898C288.948 267.453 279.649 260.551 266.001 257.938V247.985C266.001 242.462 261.524 237.984 256.001 237.984C250.477 237.984 246 242.462 246 247.985V257.866C244.306 258.191 242.589 258.602 240.849 259.125C226.774 263.354 216.253 275.391 213.392 290.538C210.781 304.368 215.212 317.708 224.957 325.351C230.245 329.498 236.852 333.285 246 337.307V395.307C238.124 394.809 232.856 393.017 224.074 387.271C219.452 384.246 213.253 385.543 210.23 390.166C207.206 394.788 208.502 400.985 213.124 404.009C225.931 412.387 234.602 414.76 246 415.321V425.663C246 431.186 250.477 435.663 256.001 435.663C261.524 435.663 266.001 431.186 266.001 425.663V414.282C287.416 409.592 299.941 391.722 302.751 375.005C306.425 353.149 294.995 334.149 273.632 326.599ZM237.3 309.612C233.456 306.597 231.826 300.709 233.046 294.248C234.168 288.305 238.166 281.14 246 278.489V315.114C242.712 313.361 239.745 311.529 237.3 309.612ZM283.026 371.687C281.586 380.253 275.805 389.338 266 393.352V345.11C266.326 345.226 266.635 345.339 266.965 345.456C284.895 351.793 283.792 367.136 283.026 371.687V371.687Z" fill="#04B900"/>
<path d="M256.001 167.979C258.631 167.979 261.211 166.909 263.071 165.049C264.931 163.189 266.001 160.609 266.001 157.979C266.001 155.348 264.931 152.768 263.071 150.908C261.211 149.048 258.631 147.978 256.001 147.978C253.37 147.978 250.79 149.048 248.93 150.908C247.07 152.768 246 155.348 246 157.979C246 160.609 247.07 163.189 248.93 165.049C250.79 166.909 253.369 167.979 256.001 167.979Z" fill="#04B900"/>
</g>
<defs>
<clipPath id="clip0">
<rect width="512" height="512" fill="white"/>
</clipPath>
</defs>
</svg>
