<svg width="886" height="1471" viewBox="0 0 886 1471" fill="none" xmlns="http://www.w3.org/2000/svg">
<path d="M369.5 701.5L374 586.5L373 588L48 648L369.5 701.5Z" fill="#565656"/>
<path d="M810 641.5L374 586.5L369.5 701.5L494 723L810 641.5Z" fill="#A3A3A3"/>
<path d="M372 588L396 553.5L831 603.5V639.5L812.5 641.5L372 588Z" fill="#AEAEAE"/>
<path d="M406.5 548L398 554L831 603.5L832 596.5L406.5 548Z" fill="#6B6B6B"/>
<path d="M406 539L396 553.5H398.5L406.5 548L406 539Z" fill="#9C9C9C"/>
<path d="M402.5 475V471L833 509.5V512L402.5 475Z" fill="#616161"/>
<path d="M832 596.5L406.5 548L402.708 475L832 511V596.5Z" fill="#B7B7B7"/>
<path d="M818.5 539.5L746.5 657.5L778 649.5L824 572L828 571L832.5 567V539.5H818.5Z" fill="#717171"/>
<path d="M345 153.5L346 166.5L330 147.5L322 47.5L343.5 46L345 115.5L382 114L384 150L345 153.5Z" fill="#898989"/>
<path d="M367.5 564L345 154L352.5 157.5L371.5 563L367.5 564Z" fill="#C4C4C4"/>
<path d="M345 115L343 46.5L819 18.5L817 101L345 115Z" fill="#474747"/>
<path d="M320 148L314 47.5L322 47L329.5 148L345.5 166.5L369 589L360 589.5L337.5 170.5L320 148Z" fill="#C4C4C4"/>
<path d="M485 731.5L0 650L13 1290L468.5 1470.5L485 731.5Z" fill="#747474"/>
<path d="M158 797L258 813.304L255.826 888.304L158 869.826V797Z" fill="#C4C4C4"/>
<path d="M213.104 864.433L213.102 866.982L215.65 866.984L215.653 864.436L213.104 864.433Z" fill="black"/>
<path d="M179.994 846.554L180 841.457L182.548 841.46L182.545 844.009L187.643 844.014L187.651 836.369L192.749 836.375L192.746 838.923L197.843 838.929L197.84 841.478L190.194 841.469L190.188 846.566L179.994 846.554Z" fill="black"/>
<rect x="180.029" y="815.971" width="15.2916" height="15.2916" transform="rotate(0.0665605 180.029 815.971)" fill="black"/>
<path d="M183.582 827.699L183.592 819.543L191.747 819.553L191.738 827.708L183.582 827.699Z" stroke="#C8C8C8" stroke-width="2.03889"/>
<rect x="215.709" y="816.012" width="15.2916" height="15.2916" transform="rotate(0.0665605 215.709 816.012)" fill="black"/>
<path d="M219.264 827.74L219.273 819.585L227.429 819.594L227.419 827.75L219.264 827.74Z" stroke="#C8C8C8" stroke-width="2.03889"/>
<rect x="179.988" y="851.651" width="15.2916" height="15.2916" transform="rotate(0.0665605 179.988 851.651)" fill="black"/>
<path d="M183.542 863.379L183.551 855.224L191.707 855.233L191.697 863.389L183.542 863.379Z" stroke="#C8C8C8" stroke-width="2.03889"/>
<path d="M228.396 864.451L228.393 866.999L230.942 867.002L230.945 864.454L228.396 864.451Z" fill="black"/>
<path d="M182.551 838.911L180.003 838.908L180.009 833.811L187.654 833.82L187.651 836.369L182.554 836.363L182.551 838.911Z" fill="black"/>
<path d="M197.846 836.381L192.749 836.375L192.751 833.826L197.849 833.832L197.846 836.381Z" fill="black"/>
<path d="M197.819 859.318L197.81 866.964L205.456 866.973L205.459 864.424L202.91 864.421L202.913 861.872L200.365 861.87L200.368 859.321L197.819 859.318Z" fill="black"/>
<path d="M208.01 861.878L208.007 864.427L210.556 864.43L210.559 861.881L208.01 861.878Z" fill="black"/>
<path d="M225.859 854.253L225.856 856.802L228.405 856.805L228.408 854.256L225.859 854.253Z" fill="black"/>
<path d="M228.414 849.159L228.411 851.708L230.96 851.711L230.963 849.162L228.414 849.159Z" fill="black"/>
<path d="M225.872 844.059L225.869 846.608L228.417 846.61L228.42 844.062L225.872 844.059Z" fill="black"/>
<path d="M213.128 844.044L213.125 846.593L215.674 846.596L215.677 844.047L213.128 844.044Z" fill="black"/>
<path d="M197.828 851.672L197.825 854.221L200.374 854.224L200.376 851.675L197.828 851.672Z" fill="black"/>
<path d="M187.637 849.112L187.64 846.563L195.285 846.572L195.288 844.023L200.386 844.029L200.388 841.481L202.937 841.484L202.94 838.935L200.391 838.932L200.394 836.383L200.4 831.286L197.852 831.283L197.858 826.186L205.503 826.195L205.498 831.292L202.949 831.289L202.943 836.386L205.492 836.389L205.495 833.841L208.043 833.844L208.049 828.747L214.166 828.754L214.163 831.302L210.595 831.298L210.592 833.847L210.589 836.395L210.585 839.454L208.037 839.451L208.04 836.392L205.492 836.389L205.486 841.487L213.131 841.495L213.129 844.044L205.483 844.035L202.934 844.032L202.931 846.581L200.383 846.578L200.38 849.126L187.637 849.112Z" fill="black"/>
<path d="M202.925 851.678L202.928 849.129L205.477 849.132L205.474 851.681L202.925 851.678Z" fill="black"/>
<path d="M213.12 851.69L208.022 851.684L208.028 846.587L210.577 846.59L210.574 849.138L213.123 849.141L213.12 851.69Z" fill="black"/>
<path d="M197.864 821.089L197.869 815.992L213.161 816.009L213.158 818.558L210.61 818.555L210.607 821.104L213.155 821.107L213.149 826.204L210.601 826.201L210.604 823.652L208.055 823.649L208.058 821.101L205.509 821.098L202.961 821.095L202.958 823.643L200.409 823.64L200.412 821.092L197.864 821.089Z" fill="black"/>
<path d="M223.329 838.959L223.326 841.507L225.874 841.51L225.877 838.962L223.329 838.959Z" fill="black"/>
<path d="M223.296 866.993L220.748 866.99L220.754 861.893L218.205 861.89L218.208 859.342L220.757 859.345L220.76 856.796L205.468 856.778L205.465 859.327L200.368 859.321L200.374 854.224L205.471 854.23L218.214 854.244L218.217 851.696L215.668 851.693L215.674 846.596L220.771 846.602L220.774 844.053L218.226 844.05L218.229 841.501L218.232 838.953L213.134 838.947L213.141 833.34L220.787 833.349L220.783 836.407L223.332 836.41L223.329 838.959L220.78 838.956L220.777 841.504L223.326 841.507L223.32 846.605L225.869 846.608L225.863 851.705L223.314 851.702L223.308 856.799L225.857 856.802L225.854 859.351L230.951 859.356L230.948 861.905L223.302 861.896L223.296 866.993Z" fill="black"/>
<path d="M230.981 833.361L225.884 833.355L225.88 836.413L228.429 836.416L228.423 841.513L230.972 841.516L230.981 833.361Z" fill="black"/>
<path d="M210.559 861.881L210.565 856.784L215.662 856.79L215.656 861.887L210.559 861.881Z" fill="black"/>
<path d="M802 1258L468.5 1470.5L485 731.5L832.5 640.5L802 1258Z" fill="#8D8D8D"/>
<path d="M0 650L360 587.5L369 589L48 648L494 723.141L813 640.5H832.5L508 725.5L485 731.5L0 650Z" fill="#8D8D8D"/>
<path d="M843 640.5H832.5L834 171L836 168L840.5 166.5L844.5 166L842 164.5L838.5 164L835 162.5L829.5 159L824 151L820.5 146.5C819.833 145.833 818.6 144.2 819 143C819.5 141.5 821 139 824.5 140L844.5 166L843 640.5Z" fill="#C4C4C4"/>
<path d="M817.5 131.5L819 18.5L314 47.5L313.5 33L831.5 4.5L828 137H826L824 137.5L821.5 137L820 136L818 134.5L817.5 131.5Z" fill="#C4C4C4"/>
<path d="M877 0.5L831.5 4.5L828.5 136.5L824.5 137.5V140L844.5 166L843 640.5L881.5 622.5L886 18L877 0.5Z" fill="#ABABAB"/>
<path d="M402.5 471L382 114L816.5 101V137L820 147L833.5 163.5L832 509.5L402.5 471Z" fill="#343434"/>
<path d="M404 500L384 152.5L352.5 157L370.5 554.5L395 521.5C394.5 510.333 407.5 496.5 404 500Z" fill="#A9A9A9"/>
<path d="M410.5 532.5L344 628L335.5 629.5L329.5 626.5L325 626L393 524.5L395 520L398.5 509L404.5 500H408.5L417.5 504L422.5 510L410.5 532.5Z" fill="#838383"/>
<path d="M351.5 156.5L345 153.5L384 150V152.5L351.5 156.5Z" fill="#7A7A7A"/>
</svg>
